<svg id="visual" viewBox="0 0 900 600" width="900" height="600" xmlns="http://www.w3.org/2000/svg" xmlns:xlink="http://www.w3.org/1999/xlink" version="1.1"><rect x="0" y="0" width="900" height="600" fill="#00b991"></rect><path d="M0 49L64 49L64 49L129 49L129 49L193 49L193 49L257 49L257 49L321 49L321 49L386 49L386 49L450 49L450 49L514 49L514 49L579 49L579 49L643 49L643 49L707 49L707 49L771 49L771 49L836 49L836 49L900 49L900 49L900 601L900 601L836 601L836 601L771 601L771 601L707 601L707 601L643 601L643 601L579 601L579 601L514 601L514 601L450 601L450 601L386 601L386 601L321 601L321 601L257 601L257 601L193 601L193 601L129 601L129 601L64 601L64 601L0 601Z" fill="#00b68f"></path><path d="M0 99L64 99L64 99L129 99L129 99L193 99L193 99L257 99L257 99L321 99L321 99L386 99L386 99L450 99L450 99L514 99L514 99L579 99L579 99L643 99L643 99L707 99L707 99L771 99L771 99L836 99L836 99L900 99L900 99L900 601L900 601L836 601L836 601L771 601L771 601L707 601L707 601L643 601L643 601L579 601L579 601L514 601L514 601L450 601L450 601L386 601L386 601L321 601L321 601L257 601L257 601L193 601L193 601L129 601L129 601L64 601L64 601L0 601Z" fill="#00b38c"></path><path d="M0 149L64 149L64 149L129 149L129 149L193 149L193 149L257 149L257 149L321 149L321 149L386 149L386 149L450 149L450 149L514 149L514 149L579 149L579 149L643 149L643 149L707 149L707 149L771 149L771 149L836 149L836 149L900 149L900 149L900 601L900 601L836 601L836 601L771 601L771 601L707 601L707 601L643 601L643 601L579 601L579 601L514 601L514 601L450 601L450 601L386 601L386 601L321 601L321 601L257 601L257 601L193 601L193 601L129 601L129 601L64 601L64 601L0 601Z" fill="#00af89"></path><path d="M0 199L64 199L64 199L129 199L129 199L193 199L193 199L257 199L257 199L321 199L321 199L386 199L386 199L450 199L450 199L514 199L514 199L579 199L579 199L643 199L643 199L707 199L707 199L771 199L771 199L836 199L836 199L900 199L900 199L900 601L900 601L836 601L836 601L771 601L771 601L707 601L707 601L643 601L643 601L579 601L579 601L514 601L514 601L450 601L450 601L386 601L386 601L321 601L321 601L257 601L257 601L193 601L193 601L129 601L129 601L64 601L64 601L0 601Z" fill="#00ac87"></path><path d="M0 249L64 249L64 249L129 249L129 249L193 249L193 249L257 249L257 249L321 249L321 249L386 249L386 249L450 249L450 249L514 249L514 249L579 249L579 249L643 249L643 249L707 249L707 249L771 249L771 249L836 249L836 249L900 249L900 249L900 601L900 601L836 601L836 601L771 601L771 601L707 601L707 601L643 601L643 601L579 601L579 601L514 601L514 601L450 601L450 601L386 601L386 601L321 601L321 601L257 601L257 601L193 601L193 601L129 601L129 601L64 601L64 601L0 601Z" fill="#00a884"></path><path d="M0 299L64 299L64 299L129 299L129 299L193 299L193 299L257 299L257 299L321 299L321 299L386 299L386 299L450 299L450 299L514 299L514 299L579 299L579 299L643 299L643 299L707 299L707 299L771 299L771 299L836 299L836 299L900 299L900 299L900 601L900 601L836 601L836 601L771 601L771 601L707 601L707 601L643 601L643 601L579 601L579 601L514 601L514 601L450 601L450 601L386 601L386 601L321 601L321 601L257 601L257 601L193 601L193 601L129 601L129 601L64 601L64 601L0 601Z" fill="#00a581"></path><path d="M0 349L64 349L64 349L129 349L129 349L193 349L193 349L257 349L257 349L321 349L321 349L386 349L386 349L450 349L450 349L514 349L514 349L579 349L579 349L643 349L643 349L707 349L707 349L771 349L771 349L836 349L836 349L900 349L900 349L900 601L900 601L836 601L836 601L771 601L771 601L707 601L707 601L643 601L643 601L579 601L579 601L514 601L514 601L450 601L450 601L386 601L386 601L321 601L321 601L257 601L257 601L193 601L193 601L129 601L129 601L64 601L64 601L0 601Z" fill="#00a27e"></path><path d="M0 399L64 399L64 399L129 399L129 399L193 399L193 399L257 399L257 399L321 399L321 399L386 399L386 399L450 399L450 399L514 399L514 399L579 399L579 399L643 399L643 399L707 399L707 399L771 399L771 399L836 399L836 399L900 399L900 399L900 601L900 601L836 601L836 601L771 601L771 601L707 601L707 601L643 601L643 601L579 601L579 601L514 601L514 601L450 601L450 601L386 601L386 601L321 601L321 601L257 601L257 601L193 601L193 601L129 601L129 601L64 601L64 601L0 601Z" fill="#009e7b"></path><path d="M0 449L64 449L64 449L129 449L129 449L193 449L193 449L257 449L257 449L321 449L321 449L386 449L386 449L450 449L450 449L514 449L514 449L579 449L579 449L643 449L643 449L707 449L707 449L771 449L771 449L836 449L836 449L900 449L900 449L900 601L900 601L836 601L836 601L771 601L771 601L707 601L707 601L643 601L643 601L579 601L579 601L514 601L514 601L450 601L450 601L386 601L386 601L321 601L321 601L257 601L257 601L193 601L193 601L129 601L129 601L64 601L64 601L0 601Z" fill="#009b79"></path><path d="M0 499L64 499L64 499L129 499L129 499L193 499L193 499L257 499L257 499L321 499L321 499L386 499L386 499L450 499L450 499L514 499L514 499L579 499L579 499L643 499L643 499L707 499L707 499L771 499L771 499L836 499L836 499L900 499L900 499L900 601L900 601L836 601L836 601L771 601L771 601L707 601L707 601L643 601L643 601L579 601L579 601L514 601L514 601L450 601L450 601L386 601L386 601L321 601L321 601L257 601L257 601L193 601L193 601L129 601L129 601L64 601L64 601L0 601Z" fill="#009776"></path><path d="M0 549L64 549L64 549L129 549L129 549L193 549L193 549L257 549L257 549L321 549L321 549L386 549L386 549L450 549L450 549L514 549L514 549L579 549L579 549L643 549L643 549L707 549L707 549L771 549L771 549L836 549L836 549L900 549L900 549L900 601L900 601L836 601L836 601L771 601L771 601L707 601L707 601L643 601L643 601L579 601L579 601L514 601L514 601L450 601L450 601L386 601L386 601L321 601L321 601L257 601L257 601L193 601L193 601L129 601L129 601L64 601L64 601L0 601Z" fill="#009473"></path></svg>